<svg width="29" height="28" viewBox="0 0 29 28" fill="none" xmlns="http://www.w3.org/2000/svg">
<path fill-rule="evenodd" clip-rule="evenodd" d="M14.4717 28C22.2037 28 28.4717 21.732 28.4717 14C28.4717 6.26801 22.2037 0 14.4717 0C6.73969 0 0.47168 6.26801 0.47168 14C0.47168 21.732 6.73969 28 14.4717 28Z" fill="#E5E5E5"/>
<path fill-rule="evenodd" clip-rule="evenodd" d="M9.32686 8.85518C8.85329 9.32874 8.85329 10.0965 9.32686 10.5701L12.7567 14L9.32686 17.4299C8.85329 17.9035 8.85329 18.6713 9.32686 19.1448C9.80042 19.6184 10.5682 19.6184 11.0418 19.1448L14.4717 15.7149L17.9016 19.1448C18.3751 19.6184 19.1429 19.6184 19.6165 19.1448C20.0901 18.6713 20.0901 17.9035 19.6165 17.4299L16.1866 14L19.6165 10.5701C20.0901 10.0965 20.0901 9.32874 19.6165 8.85518C19.1429 8.38161 18.3751 8.38161 17.9016 8.85518L14.4717 12.2851L11.0418 8.85518C10.5682 8.38161 9.80042 8.38161 9.32686 8.85518Z" fill="#A3A3A3"/>
</svg>
